HIERARCHY
ROOT Root
{
  OFFSET 0.0 0.0 0.0
  CHANNELS 6 Xposition Yposition Zposition Zrotation Yrotation Xrotation
  JOINT Hips
  {
    OFFSET 0.0 100.0 0.0
    CHANNELS 6 Xposition Yposition Zposition Zrotation Yrotation Xrotation
    JOINT Spine1
    {
      OFFSET 5.003913 -0.037094 -0.013727
      CHANNELS 3 Zrotation Yrotation Xrotation
      JOINT Spine2
      {
        OFFSET 7.125363 -1e-06 0.0
        CHANNELS 3 Zrotation Yrotation Xrotation
        JOINT Chest
        {
          OFFSET 7.594027 1e-06 0.0
          CHANNELS 3 Zrotation Yrotation Xrotation
          JOINT Neck1
          {
            OFFSET 26.313086 -0.460272 -0.181672
            CHANNELS 3 Zrotation Yrotation Xrotation
            JOINT Neck2
            {
              OFFSET 8.045911 0.0 0.0
              CHANNELS 3 Zrotation Yrotation Xrotation
              JOINT Head
              {
                OFFSET 6.432774 0.0 0.0
                CHANNELS 3 Zrotation Yrotation Xrotation
                JOINT HeadEnd
                {
                  OFFSET 16.169773 0.06451 0.00362
                  CHANNELS 3 Zrotation Yrotation Xrotation
                }
                JOINT Jaw
                {
                  OFFSET 0.108741 3.12938 0.002639
                  CHANNELS 3 Zrotation Yrotation Xrotation
                }
                JOINT LeftEye
                {
                  OFFSET 4.45173 8.166359 3.206392
                  CHANNELS 3 Zrotation Yrotation Xrotation
                }
                JOINT RightEye
                {
                  OFFSET 4.436895 8.135758 -3.222429
                  CHANNELS 3 Zrotation Yrotation Xrotation
                }
              }
            }
          }
          JOINT LeftShoulder
          {
            OFFSET 23.218927 5.195579 1.621656
            CHANNELS 3 Zrotation Yrotation Xrotation
            JOINT LeftArm
            {
              OFFSET 15.902118 2e-06 -2e-06
              CHANNELS 3 Zrotation Yrotation Xrotation
              JOINT LeftForeArm
              {
                OFFSET 28.739307 0.0 -1e-06
                CHANNELS 3 Zrotation Yrotation Xrotation
                JOINT LeftHand
                {
                  OFFSET 27.093981 -4e-06 0.0
                  CHANNELS 3 Zrotation Yrotation Xrotation
                  JOINT LeftHandThumb1
                  {
                    OFFSET 2.276781 3.380274 0.83384
                    CHANNELS 3 Zrotation Yrotation Xrotation
                    JOINT LeftHandThumb2
                    {
                      OFFSET 4.705309 -1e-06 -1e-06
                      CHANNELS 3 Zrotation Yrotation Xrotation
                      JOINT LeftHandThumb3
                      {
                        OFFSET 2.798515 0.0 3e-06
                        CHANNELS 3 Zrotation Yrotation Xrotation
                        JOINT LeftHandThumbEnd
                        {
                          OFFSET 3.180793 4e-06 -4e-06
                          CHANNELS 3 Zrotation Yrotation Xrotation
                        }
                      }
                    }
                  }
                  JOINT LeftHandIndex1
                  {
                    OFFSET 3.247786 2.352677 0.137192
                    CHANNELS 3 Zrotation Yrotation Xrotation
                    JOINT LeftHandIndex2
                    {
                      OFFSET 6.367095 1e-06 0.0
                      CHANNELS 3 Zrotation Yrotation Xrotation
                      JOINT LeftHandIndex3
                      {
                        OFFSET 3.662364 0.0 0.0
                        CHANNELS 3 Zrotation Yrotation Xrotation
                        JOINT LeftHandIndex4
                        {
                          OFFSET 2.329242 4e-06 -4e-06
                          CHANNELS 3 Zrotation Yrotation Xrotation
                          JOINT LeftHandIndexEnd
                          {
                            OFFSET 2.767823 1e-06 0.0
                            CHANNELS 3 Zrotation Yrotation Xrotation
                          }
                        }
                      }
                    }
                  }
                  JOINT LeftHandMiddle1
                  {
                    OFFSET 3.163612 0.945023 -0.406112
                    CHANNELS 3 Zrotation Yrotation Xrotation
                    JOINT LeftHandMiddle2
                    {
                      OFFSET 6.276789 3e-06 0.0
                      CHANNELS 3 Zrotation Yrotation Xrotation
                      JOINT LeftHandMiddle3
                      {
                        OFFSET 4.35652 -1e-06 4e-06
                        CHANNELS 3 Zrotation Yrotation Xrotation
                        JOINT LeftHandMiddle4
                        {
                          OFFSET 2.996877 0.0 8e-06
                          CHANNELS 3 Zrotation Yrotation Xrotation
                          JOINT LeftHandMiddleEnd
                          {
                            OFFSET 2.323256 3e-06 -4e-06
                            CHANNELS 3 Zrotation Yrotation Xrotation
                          }
                        }
                      }
                    }
                  }
                  JOINT LeftHandRing1
                  {
                    OFFSET 2.882606 -0.309162 0.107445
                    CHANNELS 3 Zrotation Yrotation Xrotation
                    JOINT LeftHandRing2
                    {
                      OFFSET 6.033198 0.0 4e-06
                      CHANNELS 3 Zrotation Yrotation Xrotation
                      JOINT LeftHandRing3
                      {
                        OFFSET 4.350578 3e-06 0.0
                        CHANNELS 3 Zrotation Yrotation Xrotation
                        JOINT LeftHandRing4
                        {
                          OFFSET 2.651321 2e-06 -7e-06
                          CHANNELS 3 Zrotation Yrotation Xrotation
                          JOINT LeftHandRingEnd
                          {
                            OFFSET 1.937663 1e-06 -4e-06
                            CHANNELS 3 Zrotation Yrotation Xrotation
                          }
                        }
                      }
                    }
                  }
                  JOINT LeftHandPinky1
                  {
                    OFFSET 2.865315 -1.525436 0.575687
                    CHANNELS 3 Zrotation Yrotation Xrotation
                    JOINT LeftHandPinky2
                    {
                      OFFSET 5.54936 1e-06 -8e-06
                      CHANNELS 3 Zrotation Yrotation Xrotation
                      JOINT LeftHandPinky3
                      {
                        OFFSET 3.070974 0.0 -4e-06
                        CHANNELS 3 Zrotation Yrotation Xrotation
                        JOINT LeftHandPinky4
                        {
                          OFFSET 1.549672 1e-06 0.0
                          CHANNELS 3 Zrotation Yrotation Xrotation
                          JOINT LeftHandPinkyEnd
                          {
                            OFFSET 1.952123 0.0 0.0
                            CHANNELS 3 Zrotation Yrotation Xrotation
                          }
                        }
                      }
                    }
                  }
                }
              }
            }
          }
          JOINT RightShoulder
          {
            OFFSET 23.161716 5.296122 -1.380114
            CHANNELS 3 Zrotation Yrotation Xrotation
            JOINT RightArm
            {
              OFFSET -16.027195 -2e-06 1.1e-05
              CHANNELS 3 Zrotation Yrotation Xrotation
              JOINT RightForeArm
              {
                OFFSET -28.736639 4e-06 2e-06
                CHANNELS 3 Zrotation Yrotation Xrotation
                JOINT RightHand
                {
                  OFFSET -27.133619 6e-06 0.0
                  CHANNELS 3 Zrotation Yrotation Xrotation
                  JOINT RightHandThumb1
                  {
                    OFFSET -2.274328 -3.351035 -0.83067
                    CHANNELS 3 Zrotation Yrotation Xrotation
                    JOINT RightHandThumb2
                    {
                      OFFSET -4.703594 -3e-06 2e-06
                      CHANNELS 3 Zrotation Yrotation Xrotation
                      JOINT RightHandThumb3
                      {
                        OFFSET -2.794935 -4e-06 -3e-06
                        CHANNELS 3 Zrotation Yrotation Xrotation
                        JOINT RightHandThumbEnd
                        {
                          OFFSET -3.183852 4e-06 1e-06
                          CHANNELS 3 Zrotation Yrotation Xrotation
                        }
                      }
                    }
                  }
                  JOINT RightHandIndex1
                  {
                    OFFSET -3.253496 -2.33755 -0.127667
                    CHANNELS 3 Zrotation Yrotation Xrotation
                    JOINT RightHandIndex2
                    {
                      OFFSET -6.344434 0.0 0.0
                      CHANNELS 3 Zrotation Yrotation Xrotation
                      JOINT RightHandIndex3
                      {
                        OFFSET -3.654871 0.0 -8e-06
                        CHANNELS 3 Zrotation Yrotation Xrotation
                        JOINT RightHandIndex4
                        {
                          OFFSET -2.327586 -1e-06 0.0
                          CHANNELS 3 Zrotation Yrotation Xrotation
                          JOINT RightHandIndexEnd
                          {
                            OFFSET -2.770001 3e-06 8e-06
                            CHANNELS 3 Zrotation Yrotation Xrotation
                          }
                        }
                      }
                    }
                  }
                  JOINT RightHandMiddle1
                  {
                    OFFSET -3.168223 -0.944764 0.411762
                    CHANNELS 3 Zrotation Yrotation Xrotation
                    JOINT RightHandMiddle2
                    {
                      OFFSET -6.266691 -1e-06 -4e-06
                      CHANNELS 3 Zrotation Yrotation Xrotation
                      JOINT RightHandMiddle3
                      {
                        OFFSET -4.348901 0.0 0.0
                        CHANNELS 3 Zrotation Yrotation Xrotation
                        JOINT RightHandMiddle4
                        {
                          OFFSET -3.00024 2e-06 -4e-06
                          CHANNELS 3 Zrotation Yrotation Xrotation
                          JOINT RightHandMiddleEnd
                          {
                            OFFSET -2.321477 -4e-06 -4e-06
                            CHANNELS 3 Zrotation Yrotation Xrotation
                          }
                        }
                      }
                    }
                  }
                  JOINT RightHandRing1
                  {
                    OFFSET -2.885654 0.293261 -0.119232
                    CHANNELS 3 Zrotation Yrotation Xrotation
                    JOINT RightHandRing2
                    {
                      OFFSET -6.032835 -1e-06 -4e-06
                      CHANNELS 3 Zrotation Yrotation Xrotation
                      JOINT RightHandRing3
                      {
                        OFFSET -4.33881 0.0 -4e-06
                        CHANNELS 3 Zrotation Yrotation Xrotation
                        JOINT RightHandRing4
                        {
                          OFFSET -2.654903 -4e-06 -4e-06
                          CHANNELS 3 Zrotation Yrotation Xrotation
                          JOINT RightHandRingEnd
                          {
                            OFFSET -1.935122 0.0 4e-06
                            CHANNELS 3 Zrotation Yrotation Xrotation
                          }
                        }
                      }
                    }
                  }
                  JOINT RightHandPinky1
                  {
                    OFFSET -2.866241 1.503904 -0.60527
                    CHANNELS 3 Zrotation Yrotation Xrotation
                    JOINT RightHandPinky2
                    {
                      OFFSET -5.553177 -2e-06 0.0
                      CHANNELS 3 Zrotation Yrotation Xrotation
                      JOINT RightHandPinky3
                      {
                        OFFSET -3.062664 -1e-06 -4e-06
                        CHANNELS 3 Zrotation Yrotation Xrotation
                        JOINT RightHandPinky4
                        {
                          OFFSET -1.546529 2e-06 4e-06
                          CHANNELS 3 Zrotation Yrotation Xrotation
                          JOINT RightHandPinkyEnd
                          {
                            OFFSET -1.952341 0.0 -4e-06
                            CHANNELS 3 Zrotation Yrotation Xrotation
                          }
                        }
                      }
                    }
                  }
                }
              }
            }
          }
        }
      }
    }
    JOINT LeftLeg
    {
      OFFSET -8.443107 2.567604 10.043214
      CHANNELS 3 Zrotation Yrotation Xrotation
      JOINT LeftShin
      {
        OFFSET 43.229198 1e-06 -1e-06
        CHANNELS 3 Zrotation Yrotation Xrotation
        JOINT LeftFoot
        {
          OFFSET 42.298611 1e-06 1e-06
          CHANNELS 3 Zrotation Yrotation Xrotation
          JOINT LeftToeBase
          {
            OFFSET 14.165858 1e-06 0.0
            CHANNELS 3 Zrotation Yrotation Xrotation
            JOINT LeftToeEnd
            {
              OFFSET 6.7141 -0.234461 0.0
              CHANNELS 3 Zrotation Yrotation Xrotation
            }
          }
        }
      }
    }
    JOINT RightLeg
    {
      OFFSET -8.303923 2.592729 -10.047278
      CHANNELS 3 Zrotation Yrotation Xrotation
      JOINT RightShin
      {
        OFFSET -43.369682 0.0 1e-06
        CHANNELS 3 Zrotation Yrotation Xrotation
        JOINT RightFoot
        {
          OFFSET -42.260784 4e-06 2e-06
          CHANNELS 3 Zrotation Yrotation Xrotation
          JOINT RightToeBase
          {
            OFFSET -14.222245 -2e-06 -1e-06
            CHANNELS 3 Zrotation Yrotation Xrotation
            JOINT RightToeEnd
            {
              OFFSET -6.660062 0.232574 -2e-06
              CHANNELS 3 Zrotation Yrotation Xrotation
            }
          }
        }
      }
    }
  }
}
MOTION
Frames: 4
Frame Time: 0.03333333333333333
0.0 0.0 0.0 0.0 -0.0 0.0 1.752155 49.970879 55.304043 89.003036 -5.603224 89.929199 5.190254 0.301499 0.027499 -9.548513 -0.458298 0.370571 15.769817 2.430503 -0.686462 27.68075 3.321777 2.56424 -2.632233 -0.452525 1.128016 -35.13765 -2.997396 3.1349 6e-06 -0.0 -0.0 -0.093382 0.022523 -0.138808 0.061687 0.039328 -0.061514 0.041707 0.002275 -0.205282 -79.253433 -77.111679 94.317192 56.5383 -59.400661 -12.605757 32.052544 -0.161539 0.31938 -0.845155 -8.221501 2.751768 17.636623 -26.322731 52.411182 -19.466652 -14.395597 29.410378 -1e-06 -8.774819 -2e-06 16.235065 -18.260231 6.410368 -0.609776 -1.795653 -3.889326 -4.807087 -11.046806 -2.93785 3e-06 -20.976011 -0.0 -5.019972 -25.033545 -4.031879 6e-06 1e-06 0.0 -10.634531 -5.686968 -3.565585 10.573271 -17.922945 -3.113896 2e-06 -13.821205 1e-06 -0.501777 -31.181498 -4.027012 -12.323146 -60.690884 8.026483 -13.982712 -7.150196 -2.875037 13.772726 -8.401491 -3.218239 0.347733 -34.211544 0.771654 -0.963029 -17.73337 2.62102 1e-06 -1e-06 -0.0 -17.346415 -20.095209 -4.201775 21.757555 -1.638373 3.866425 1e-06 -6.338821 1e-06 -1.697588 -22.591742 -6.194003 -0.0 -5e-06 -1e-06 27.188042 -77.179329 170.126648 57.804508 -48.707729 -11.845259 25.759939 -0.769739 -0.120939 -12.081522 4.951102 11.43445 22.182116 -20.375891 49.933308 -16.701811 -16.743528 28.476522 -3e-06 -12.690601 -1e-06 16.487879 -17.160601 2.261889 -0.105919 -1.513856 -4.275879 -5.039041 -5.612872 -2.953557 3e-06 -11.020523 -1e-06 -6.1113 -15.895334 -3.840469 -0.0 1e-06 -1e-06 -10.28337 -5.680288 -4.341838 11.028293 -11.302406 -2.372629 -1.38427 -14.238581 -6.320119 -0.62544 -26.924189 -3.8276 -4.072837 -50.143833 -4.0972 -13.708524 -7.363479 -3.720938 18.14115 -14.05274 -3.242672 5e-06 -18.78727 -1e-06 -0.429712 -8.456045 2.555503 -0.0 1e-06 0.0 -15.923534 -20.094484 -5.473584 30.41921 -7.190824 1.735927 3e-06 -8.162927 1e-06 -1.861902 -22.861469 -6.167942 -0.0 -2e-06 -1e-06 166.088562 -11.087861 2.141557 133.257965 -0.315169 -0.348872 -124.995308 10.296301 -7.730806 -27.982174 1.961252 2.092607 -1.0 0.0 -0.0 -17.853743 -13.352097 5.445788 133.274399 -0.205625 -0.087214 -121.59819 15.056717 -8.822576 -24.752275 1.000592 1.596876 -1.000001 -0.0 -0.0 
0.0 0.0 0.0 0.0 -0.0 0.0 1.651246 49.969139 55.312229 89.057045 -5.606537 89.865913 5.190797 0.298974 0.047818 -9.548909 -0.449354 0.390136 15.7086 2.391496 -0.718942 27.565842 3.246895 2.559409 -2.624991 -0.492872 1.164205 -35.112324 -2.938761 3.039498 6e-06 -0.0 0.0 -0.097407 0.02055 -0.120647 0.061809 0.037215 -0.042914 0.04041 0.00042 -0.186973 -79.596756 -77.155556 94.650841 57.141758 -59.259186 -13.270873 31.90641 -0.14003 0.303002 -0.657324 -8.151247 2.62071 17.636629 -26.322731 52.41119 -19.46666 -14.395596 29.410385 0.0 -8.774822 -2e-06 16.256903 -18.284298 6.380133 -0.609776 -1.795654 -3.88933 -4.807089 -11.046813 -2.937849 3e-06 -20.976019 1e-06 -5.019972 -25.03356 -4.03188 6e-06 -0.0 -1e-06 -10.634536 -5.686971 -3.565587 10.573276 -17.922955 -3.1139 4e-06 -13.821211 -0.0 -0.501781 -31.181505 -4.027014 -12.340522 -60.709057 8.004346 -13.982713 -7.150198 -2.875042 13.77273 -8.401493 -3.218241 0.347734 -34.211555 0.771653 -0.963028 -17.733372 2.621018 2e-06 0.0 -0.0 -17.346418 -20.095221 -4.201781 21.757557 -1.638375 3.866428 1e-06 -6.338823 -1e-06 -1.697588 -22.591749 -6.194005 -1e-06 -5e-06 -2e-06 27.550241 -77.299202 169.724213 57.983456 -48.832756 -12.414973 25.667992 -0.753735 -0.124973 -12.154988 5.132697 11.523076 22.182112 -20.375885 49.933296 -16.701813 -16.743528 28.476524 -1e-06 -12.690601 -2e-06 16.509941 -17.164036 2.240692 -0.105919 -1.513856 -4.275878 -5.039042 -5.612872 -2.953553 2e-06 -11.020525 -2e-06 -6.111301 -15.895334 -3.84047 0.0 0.0 0.0 -10.283371 -5.680289 -4.341837 11.028294 -11.302404 -2.372634 -1.38427 -14.23858 -6.320121 -0.62544 -26.924191 -3.827602 -4.029728 -50.118172 -4.143399 -13.708527 -7.363478 -3.720936 18.14115 -14.052738 -3.242676 5e-06 -18.78727 -4e-06 -0.42971 -8.456045 2.555501 -0.0 1e-06 -1e-06 -15.923538 -20.094484 -5.473582 30.419218 -7.190824 1.735926 2e-06 -8.162925 -1e-06 -1.861902 -22.861467 -6.167945 0.0 -2e-06 -4e-06 166.067169 -11.118816 2.217129 133.188705 -0.306859 -0.337582 -124.91655 10.376327 -7.769008 -28.184025 1.966381 2.096447 -1.000002 0.0 -0.0 -17.861078 -13.266425 5.378639 133.295563 -0.217355 -0.090448 -121.583572 14.913435 -8.709855 -24.819653 1.001202 1.596547 -1.000001 -0.0 -0.0 
0.0 0.0 0.0 0.0 -0.0 0.0 1.537778 49.950554 55.33054 89.103813 -5.603828 89.794739 5.178114 0.290232 0.066119 -9.548657 -0.434939 0.395853 15.653481 2.347829 -0.746895 27.468172 3.18251 2.533786 -2.626446 -0.545454 1.224857 -35.052483 -2.915908 2.981711 6e-06 -0.0 0.0 -0.098047 0.018595 -0.106253 0.063325 0.033533 -0.030831 0.03766 0.00042 -0.170212 -79.688766 -77.215637 94.743095 57.899208 -59.136414 -13.954508 31.801781 -0.095113 0.303266 -0.502825 -8.116321 2.548695 17.636631 -26.322733 52.411198 -19.466663 -14.395598 29.410389 -1e-06 -8.774822 -1e-06 16.264067 -18.322538 6.352787 -0.609776 -1.795653 -3.889325 -4.807088 -11.046809 -2.937853 5e-06 -20.976015 -1e-06 -5.01997 -25.033556 -4.031881 8e-06 -0.0 -2e-06 -10.634534 -5.68697 -3.565585 10.573277 -17.922951 -3.113902 3e-06 -13.821208 1e-06 -0.501778 -31.181501 -4.027014 -12.320617 -60.675159 7.917876 -13.982714 -7.150198 -2.875043 13.772731 -8.401491 -3.218241 0.347733 -34.211552 0.771657 -0.963032 -17.733368 2.621021 1e-06 1e-06 1e-06 -17.34642 -20.095217 -4.20178 21.757561 -1.638376 3.866429 1e-06 -6.338823 0.0 -1.697591 -22.591743 -6.194003 -0.0 -3e-06 -2e-06 28.019199 -77.422234 169.201035 58.247559 -49.008282 -13.088403 25.576288 -0.744965 -0.134246 -12.204702 5.251974 11.654914 22.182117 -20.375898 49.933319 -16.701813 -16.743528 28.476534 -3e-06 -12.690601 -0.0 16.514103 -17.153809 2.222208 -0.10592 -1.513856 -4.275883 -5.039041 -5.612871 -2.953553 3e-06 -11.020525 -1e-06 -6.111299 -15.895334 -3.840471 -0.0 0.0 -0.0 -10.283371 -5.680288 -4.341837 11.028295 -11.302404 -2.372633 -1.384269 -14.238579 -6.320121 -0.62544 -26.924191 -3.827601 -3.99232 -50.079502 -4.189393 -13.708525 -7.363477 -3.720943 18.141148 -14.052739 -3.242671 6e-06 -18.78727 -0.0 -0.429713 -8.456044 2.555504 0.0 1e-06 0.0 -15.923536 -20.094482 -5.473585 30.41921 -7.190825 1.73593 3e-06 -8.162924 -2e-06 -1.861902 -22.861467 -6.167942 -2e-06 -2e-06 -1e-06 166.076508 -11.167155 2.299841 133.106613 -0.30231 -0.332698 -124.850586 10.468523 -7.843949 -28.372965 1.969049 2.100725 -1.0 0.0 0.0 -17.846363 -13.183045 5.27822 133.309509 -0.232768 -0.090456 -121.567726 14.76938 -8.589762 -24.806475 0.998354 1.598789 -1.000003 -0.0 -0.0 
0.0 0.0 0.0 0.0 -0.0 0.0 1.42911 49.930721 55.342705 89.159256 -5.590557 89.695633 5.157258 0.271309 0.076968 -9.543928 -0.416885 0.384098 15.595139 2.282825 -0.763219 27.407343 3.116972 2.479915 -2.639123 -0.591937 1.306197 -34.948067 -2.910994 2.968822 6e-06 -0.0 -0.0 -0.095506 0.017288 -0.09914 0.060704 0.031722 -0.028032 0.029496 -8.9e-05 -0.158805 -79.676483 -77.281891 94.721329 58.647217 -59.038284 -14.469377 31.746607 -0.0328 0.317533 -0.396921 -8.149291 2.51163 17.636627 -26.322733 52.41119 -19.466665 -14.395598 29.410389 -1e-06 -8.774822 0.0 16.25004 -18.346661 6.343475 -0.609777 -1.795654 -3.889328 -4.80709 -11.046813 -2.937851 3e-06 -20.976019 -2e-06 -5.019971 -25.03356 -4.031882 6e-06 -0.0 -0.0 -10.634535 -5.686972 -3.565589 10.573271 -17.922953 -3.113899 2e-06 -13.821211 0.0 -0.501777 -31.181507 -4.027017 -12.265103 -60.6231 7.833393 -13.982714 -7.150198 -2.875041 13.77273 -8.401493 -3.218241 0.347733 -34.211555 0.771655 -0.963029 -17.73337 2.621018 1e-06 -0.0 -0.0 -17.346418 -20.095221 -4.201782 21.757559 -1.638375 3.866427 1e-06 -6.338825 -0.0 -1.697586 -22.591745 -6.194007 -2e-06 -6e-06 -1e-06 28.525181 -77.557358 168.639603 58.559036 -49.246582 -13.822402 25.512417 -0.735422 -0.140628 -12.240659 5.327954 11.855393 22.182114 -20.375889 49.933308 -16.701809 -16.74353 28.476526 -3e-06 -12.690601 -0.0 16.50136 -17.124199 2.210184 -0.105919 -1.513856 -4.275881 -5.039041 -5.612872 -2.953555 4e-06 -11.020523 -0.0 -6.111298 -15.89533 -3.840472 1e-06 0.0 -0.0 -10.28337 -5.680288 -4.341839 11.028296 -11.302405 -2.372634 -1.38427 -14.238579 -6.320117 -0.625438 -26.924191 -3.8276 -3.971029 -50.030746 -4.205526 -13.708527 -7.363475 -3.720936 18.14115 -14.052739 -3.242674 5e-06 -18.787266 -2e-06 -0.429711 -8.456041 2.555502 1e-06 0.0 -1e-06 -15.923536 -20.094482 -5.473582 30.419214 -7.190827 1.735929 3e-06 -8.162925 -1e-06 -1.861901 -22.861473 -6.167943 -1e-06 -1e-06 -1e-06 166.107422 -11.199531 2.34479 133.026993 -0.302165 -0.334755 -124.792351 10.548878 -7.948138 -28.471249 1.969029 2.103443 -1.000001 0.0 0.0 -17.858524 -13.129523 5.210856 133.322388 -0.241909 -0.08936 -121.516701 14.658201 -8.495996 -24.708982 0.992828 1.595344 -1.000002 -0.0 -0.0 
